<?xml version="1.0" standalone="no"?>
<!DOCTYPE svg PUBLIC "-//W3C//DTD SVG 20010904//EN"
 "http://www.w3.org/TR/2001/REC-SVG-20010904/DTD/svg10.dtd">
<svg version="1.0" xmlns="http://www.w3.org/2000/svg"
 width="1600.000000pt" height="1600.000000pt" viewBox="0 0 1600.000000 1600.000000"
 preserveAspectRatio="xMidYMid meet">
<metadata>
Created by potrace 1.11, written by Peter Selinger 2001-2013
</metadata>
<g transform="translate(0.000000,1600.000000) scale(0.100000,-0.100000)"
fill="#000000" stroke="none">
<path d="M636 15031 c-2 -9 -3 -151 -2 -316 l1 -300 2185 -2 c1202 -1 2202 -2
2223 -3 l37 0 0 -1903 0 -1903 -2216 1 c-1467 0 -2218 -3 -2222 -10 -4 -5 -7
-148 -7 -317 l0 -308 50 0 c1966 -2 5019 1 5024 5 3 4 6 502 6 1108 l0 1102
2221 3 2222 2 0 -4125 c0 -2269 -3 -4125 -6 -4126 -20 -3 -4409 -4 -4422 -1
-14 3 -16 125 -16 1110 l0 1107 -2539 0 -2540 0 0 -315 0 -315 2220 0 2220 -1
3 -1905 2 -1905 -2222 0 -2223 0 0 -317 -1 -317 61 0 c67 0 4826 0 4945 0 l75
0 0 1106 c0 608 3 1108 7 1110 4 2 1145 4 2536 4 2023 0 2531 2 2534 12 2 7 3
1008 3 2223 l-1 2210 2222 0 2222 0 0 318 1 317 -2223 0 -2222 0 0 2198 c1
1208 0 2208 -2 2222 l-4 25 -2526 0 c-1390 -1 -2532 1 -2537 2 -7 2 -10 363
-10 1112 l0 1109 -2537 0 c-2347 0 -2538 -1 -2542 -17z"/>
</g>
</svg>
